<mxfile host="app.diagrams.net" agent="Mozilla/5.0 (Windows NT 10.0; Win64; x64) AppleWebKit/537.36 (KHTML, like Gecko) Chrome/128.0.0.0 Safari/537.36" version="24.7.13">
  <diagram name="Page-1" id="CDDCDgIPlBx8rOzkXnmp">
    <mxGraphModel dx="1313" dy="713" grid="1" gridSize="10" guides="1" tooltips="1" connect="1" arrows="1" fold="1" page="1" pageScale="1" pageWidth="850" pageHeight="1100" math="0" shadow="0">
      <root>
        <mxCell id="0" />
        <mxCell id="1" parent="0" />
        <mxCell id="vBrNJ5U2Axzma90DS1rP-67" style="edgeStyle=orthogonalEdgeStyle;rounded=0;orthogonalLoop=1;jettySize=auto;html=1;exitX=1;exitY=0.5;exitDx=0;exitDy=0;entryX=0;entryY=0.5;entryDx=0;entryDy=0;" edge="1" parent="1" source="vBrNJ5U2Axzma90DS1rP-18" target="vBrNJ5U2Axzma90DS1rP-61">
          <mxGeometry relative="1" as="geometry" />
        </mxCell>
        <mxCell id="vBrNJ5U2Axzma90DS1rP-18" value="" style="shape=image;verticalLabelPosition=bottom;labelBackgroundColor=default;verticalAlign=top;aspect=fixed;imageAspect=0;image=https://st3.depositphotos.com/1507819/13454/v/450/depositphotos_134546216-stock-illustration-black-and-white-transmitter-icon.jpg;" vertex="1" parent="1">
          <mxGeometry x="370" y="445" width="130" height="130" as="geometry" />
        </mxCell>
        <mxCell id="vBrNJ5U2Axzma90DS1rP-24" value="" style="group" vertex="1" connectable="0" parent="1">
          <mxGeometry x="60" y="170" width="90" height="120" as="geometry" />
        </mxCell>
        <mxCell id="vBrNJ5U2Axzma90DS1rP-19" value="" style="whiteSpace=wrap;html=1;aspect=fixed;" vertex="1" parent="vBrNJ5U2Axzma90DS1rP-24">
          <mxGeometry y="34.285714285714285" width="85.71428571428571" height="85.71428571428571" as="geometry" />
        </mxCell>
        <mxCell id="vBrNJ5U2Axzma90DS1rP-14" value="" style="verticalLabelPosition=bottom;shadow=0;dashed=0;align=center;html=1;verticalAlign=top;shape=mxgraph.electrical.radio.aerial_-_antenna_2;" vertex="1" parent="vBrNJ5U2Axzma90DS1rP-24">
          <mxGeometry x="46.19700000000001" width="26.217" height="76.28571428571428" as="geometry" />
        </mxCell>
        <mxCell id="vBrNJ5U2Axzma90DS1rP-15" value="" style="sketch=0;outlineConnect=0;fontColor=#232F3E;gradientColor=none;fillColor=#7AA116;strokeColor=none;dashed=0;verticalLabelPosition=bottom;verticalAlign=top;align=center;html=1;fontSize=12;fontStyle=0;aspect=fixed;pointerEvents=1;shape=mxgraph.aws4.iot_thing_plc;" vertex="1" parent="vBrNJ5U2Axzma90DS1rP-24">
          <mxGeometry x="46.20000000000001" y="76.28571428571428" width="25.71428571428571" height="25.71428571428571" as="geometry" />
        </mxCell>
        <mxCell id="vBrNJ5U2Axzma90DS1rP-16" value="" style="html=1;dashed=0;aspect=fixed;verticalLabelPosition=bottom;verticalAlign=top;align=center;shape=mxgraph.gmdl.gps;strokeColor=#737373;fillColor=#737373;shadow=0;strokeWidth=2;sketch=0;" vertex="1" parent="vBrNJ5U2Axzma90DS1rP-24">
          <mxGeometry x="13.199999999999992" y="42.857142857142854" width="17.142857142857142" height="17.142857142857142" as="geometry" />
        </mxCell>
        <mxCell id="vBrNJ5U2Axzma90DS1rP-17" value="" style="html=1;verticalLabelPosition=bottom;align=center;labelBackgroundColor=#ffffff;verticalAlign=top;strokeWidth=2;strokeColor=#0080F0;shadow=0;dashed=0;shape=mxgraph.ios7.icons.battery;rotation=0;" vertex="1" parent="vBrNJ5U2Axzma90DS1rP-24">
          <mxGeometry x="13.199999999999992" y="102" width="19.8" height="6.8571428571428585" as="geometry" />
        </mxCell>
        <mxCell id="vBrNJ5U2Axzma90DS1rP-20" value="" style="endArrow=none;html=1;rounded=0;" edge="1" parent="vBrNJ5U2Axzma90DS1rP-24">
          <mxGeometry width="50" height="50" relative="1" as="geometry">
            <mxPoint x="33.00000000000002" y="51.42857142857142" as="sourcePoint" />
            <mxPoint x="46.20000000000001" y="89.71428571428572" as="targetPoint" />
            <Array as="points">
              <mxPoint x="39.6" y="51.42857142857142" />
              <mxPoint x="39.6" y="89.71428571428572" />
            </Array>
          </mxGeometry>
        </mxCell>
        <mxCell id="vBrNJ5U2Axzma90DS1rP-21" value="" style="endArrow=none;html=1;rounded=0;" edge="1" parent="vBrNJ5U2Axzma90DS1rP-24">
          <mxGeometry width="50" height="50" relative="1" as="geometry">
            <mxPoint x="33.00000000000002" y="106.28571428571428" as="sourcePoint" />
            <mxPoint x="60.720000000000006" y="101.71428571428572" as="targetPoint" />
            <Array as="points">
              <mxPoint x="60.720000000000006" y="106.28571428571428" />
            </Array>
          </mxGeometry>
        </mxCell>
        <mxCell id="vBrNJ5U2Axzma90DS1rP-42" value="" style="group" vertex="1" connectable="0" parent="1">
          <mxGeometry x="60" y="340" width="90" height="120" as="geometry" />
        </mxCell>
        <mxCell id="vBrNJ5U2Axzma90DS1rP-43" value="" style="whiteSpace=wrap;html=1;aspect=fixed;" vertex="1" parent="vBrNJ5U2Axzma90DS1rP-42">
          <mxGeometry y="34.285714285714285" width="85.71428571428571" height="85.71428571428571" as="geometry" />
        </mxCell>
        <mxCell id="vBrNJ5U2Axzma90DS1rP-44" value="" style="verticalLabelPosition=bottom;shadow=0;dashed=0;align=center;html=1;verticalAlign=top;shape=mxgraph.electrical.radio.aerial_-_antenna_2;" vertex="1" parent="vBrNJ5U2Axzma90DS1rP-42">
          <mxGeometry x="46.19700000000001" width="26.217" height="76.28571428571428" as="geometry" />
        </mxCell>
        <mxCell id="vBrNJ5U2Axzma90DS1rP-45" value="" style="sketch=0;outlineConnect=0;fontColor=#232F3E;gradientColor=none;fillColor=#7AA116;strokeColor=none;dashed=0;verticalLabelPosition=bottom;verticalAlign=top;align=center;html=1;fontSize=12;fontStyle=0;aspect=fixed;pointerEvents=1;shape=mxgraph.aws4.iot_thing_plc;" vertex="1" parent="vBrNJ5U2Axzma90DS1rP-42">
          <mxGeometry x="46.20000000000001" y="76.28571428571428" width="25.71428571428571" height="25.71428571428571" as="geometry" />
        </mxCell>
        <mxCell id="vBrNJ5U2Axzma90DS1rP-46" value="" style="html=1;dashed=0;aspect=fixed;verticalLabelPosition=bottom;verticalAlign=top;align=center;shape=mxgraph.gmdl.gps;strokeColor=#737373;fillColor=#737373;shadow=0;strokeWidth=2;sketch=0;" vertex="1" parent="vBrNJ5U2Axzma90DS1rP-42">
          <mxGeometry x="13.199999999999992" y="42.857142857142854" width="17.142857142857142" height="17.142857142857142" as="geometry" />
        </mxCell>
        <mxCell id="vBrNJ5U2Axzma90DS1rP-47" value="" style="html=1;verticalLabelPosition=bottom;align=center;labelBackgroundColor=#ffffff;verticalAlign=top;strokeWidth=2;strokeColor=#0080F0;shadow=0;dashed=0;shape=mxgraph.ios7.icons.battery;rotation=0;" vertex="1" parent="vBrNJ5U2Axzma90DS1rP-42">
          <mxGeometry x="13.199999999999992" y="102" width="19.8" height="6.8571428571428585" as="geometry" />
        </mxCell>
        <mxCell id="vBrNJ5U2Axzma90DS1rP-48" value="" style="endArrow=none;html=1;rounded=0;" edge="1" parent="vBrNJ5U2Axzma90DS1rP-42">
          <mxGeometry width="50" height="50" relative="1" as="geometry">
            <mxPoint x="33.00000000000002" y="51.42857142857142" as="sourcePoint" />
            <mxPoint x="46.20000000000001" y="89.71428571428572" as="targetPoint" />
            <Array as="points">
              <mxPoint x="39.6" y="51.42857142857142" />
              <mxPoint x="39.6" y="89.71428571428572" />
            </Array>
          </mxGeometry>
        </mxCell>
        <mxCell id="vBrNJ5U2Axzma90DS1rP-49" value="" style="endArrow=none;html=1;rounded=0;" edge="1" parent="vBrNJ5U2Axzma90DS1rP-42">
          <mxGeometry width="50" height="50" relative="1" as="geometry">
            <mxPoint x="33.00000000000002" y="106.28571428571428" as="sourcePoint" />
            <mxPoint x="60.720000000000006" y="101.71428571428572" as="targetPoint" />
            <Array as="points">
              <mxPoint x="60.720000000000006" y="106.28571428571428" />
            </Array>
          </mxGeometry>
        </mxCell>
        <mxCell id="vBrNJ5U2Axzma90DS1rP-50" value="" style="group" vertex="1" connectable="0" parent="1">
          <mxGeometry x="60" y="670" width="90" height="120" as="geometry" />
        </mxCell>
        <mxCell id="vBrNJ5U2Axzma90DS1rP-51" value="" style="whiteSpace=wrap;html=1;aspect=fixed;" vertex="1" parent="vBrNJ5U2Axzma90DS1rP-50">
          <mxGeometry y="34.285714285714285" width="85.71428571428571" height="85.71428571428571" as="geometry" />
        </mxCell>
        <mxCell id="vBrNJ5U2Axzma90DS1rP-52" value="" style="verticalLabelPosition=bottom;shadow=0;dashed=0;align=center;html=1;verticalAlign=top;shape=mxgraph.electrical.radio.aerial_-_antenna_2;" vertex="1" parent="vBrNJ5U2Axzma90DS1rP-50">
          <mxGeometry x="46.19700000000001" width="26.217" height="76.28571428571428" as="geometry" />
        </mxCell>
        <mxCell id="vBrNJ5U2Axzma90DS1rP-53" value="" style="sketch=0;outlineConnect=0;fontColor=#232F3E;gradientColor=none;fillColor=#7AA116;strokeColor=none;dashed=0;verticalLabelPosition=bottom;verticalAlign=top;align=center;html=1;fontSize=12;fontStyle=0;aspect=fixed;pointerEvents=1;shape=mxgraph.aws4.iot_thing_plc;" vertex="1" parent="vBrNJ5U2Axzma90DS1rP-50">
          <mxGeometry x="46.20000000000001" y="76.28571428571428" width="25.71428571428571" height="25.71428571428571" as="geometry" />
        </mxCell>
        <mxCell id="vBrNJ5U2Axzma90DS1rP-54" value="" style="html=1;dashed=0;aspect=fixed;verticalLabelPosition=bottom;verticalAlign=top;align=center;shape=mxgraph.gmdl.gps;strokeColor=#737373;fillColor=#737373;shadow=0;strokeWidth=2;sketch=0;" vertex="1" parent="vBrNJ5U2Axzma90DS1rP-50">
          <mxGeometry x="13.199999999999992" y="42.857142857142854" width="17.142857142857142" height="17.142857142857142" as="geometry" />
        </mxCell>
        <mxCell id="vBrNJ5U2Axzma90DS1rP-55" value="" style="html=1;verticalLabelPosition=bottom;align=center;labelBackgroundColor=#ffffff;verticalAlign=top;strokeWidth=2;strokeColor=#0080F0;shadow=0;dashed=0;shape=mxgraph.ios7.icons.battery;rotation=0;" vertex="1" parent="vBrNJ5U2Axzma90DS1rP-50">
          <mxGeometry x="13.199999999999992" y="102" width="19.8" height="6.8571428571428585" as="geometry" />
        </mxCell>
        <mxCell id="vBrNJ5U2Axzma90DS1rP-56" value="" style="endArrow=none;html=1;rounded=0;" edge="1" parent="vBrNJ5U2Axzma90DS1rP-50">
          <mxGeometry width="50" height="50" relative="1" as="geometry">
            <mxPoint x="33.00000000000002" y="51.42857142857142" as="sourcePoint" />
            <mxPoint x="46.20000000000001" y="89.71428571428572" as="targetPoint" />
            <Array as="points">
              <mxPoint x="39.6" y="51.42857142857142" />
              <mxPoint x="39.6" y="89.71428571428572" />
            </Array>
          </mxGeometry>
        </mxCell>
        <mxCell id="vBrNJ5U2Axzma90DS1rP-57" value="" style="endArrow=none;html=1;rounded=0;" edge="1" parent="vBrNJ5U2Axzma90DS1rP-50">
          <mxGeometry width="50" height="50" relative="1" as="geometry">
            <mxPoint x="33.00000000000002" y="106.28571428571428" as="sourcePoint" />
            <mxPoint x="60.720000000000006" y="101.71428571428572" as="targetPoint" />
            <Array as="points">
              <mxPoint x="60.720000000000006" y="106.28571428571428" />
            </Array>
          </mxGeometry>
        </mxCell>
        <mxCell id="vBrNJ5U2Axzma90DS1rP-90" style="edgeStyle=orthogonalEdgeStyle;rounded=0;orthogonalLoop=1;jettySize=auto;html=1;exitX=1;exitY=0.5;exitDx=0;exitDy=0;" edge="1" parent="1" source="vBrNJ5U2Axzma90DS1rP-61" target="vBrNJ5U2Axzma90DS1rP-89">
          <mxGeometry relative="1" as="geometry" />
        </mxCell>
        <mxCell id="vBrNJ5U2Axzma90DS1rP-61" value="" style="image;aspect=fixed;perimeter=ellipsePerimeter;html=1;align=center;shadow=0;dashed=0;spacingTop=3;image=img/lib/active_directory/windows_server.svg;" vertex="1" parent="1">
          <mxGeometry x="582" y="460" width="82" height="100" as="geometry" />
        </mxCell>
        <mxCell id="vBrNJ5U2Axzma90DS1rP-62" value="" style="image;aspect=fixed;html=1;points=[];align=center;fontSize=12;image=img/lib/azure2/databases/Azure_Database_PostgreSQL_Server_Group.svg;" vertex="1" parent="1">
          <mxGeometry x="591" y="330" width="60" height="68" as="geometry" />
        </mxCell>
        <mxCell id="vBrNJ5U2Axzma90DS1rP-65" style="edgeStyle=orthogonalEdgeStyle;rounded=0;orthogonalLoop=1;jettySize=auto;html=1;exitX=0.5;exitY=0;exitDx=0;exitDy=0;entryX=0.5;entryY=1;entryDx=0;entryDy=0;" edge="1" parent="1" source="vBrNJ5U2Axzma90DS1rP-64" target="vBrNJ5U2Axzma90DS1rP-61">
          <mxGeometry relative="1" as="geometry" />
        </mxCell>
        <mxCell id="vBrNJ5U2Axzma90DS1rP-64" value="" style="image;aspect=fixed;perimeter=ellipsePerimeter;html=1;align=center;shadow=0;dashed=0;spacingTop=3;image=img/lib/active_directory/web_server.svg;" vertex="1" parent="1">
          <mxGeometry x="593" y="620" width="80" height="100" as="geometry" />
        </mxCell>
        <mxCell id="vBrNJ5U2Axzma90DS1rP-68" value="" style="endArrow=classic;html=1;rounded=0;exitX=0.435;exitY=0.974;exitDx=0;exitDy=0;exitPerimeter=0;entryX=0.5;entryY=0;entryDx=0;entryDy=0;" edge="1" parent="1" source="vBrNJ5U2Axzma90DS1rP-62" target="vBrNJ5U2Axzma90DS1rP-61">
          <mxGeometry width="50" height="50" relative="1" as="geometry">
            <mxPoint x="640" y="540" as="sourcePoint" />
            <mxPoint x="690" y="490" as="targetPoint" />
            <Array as="points">
              <mxPoint x="617" y="430" />
              <mxPoint x="623" y="430" />
            </Array>
          </mxGeometry>
        </mxCell>
        <mxCell id="vBrNJ5U2Axzma90DS1rP-71" value="" style="html=1;outlineConnect=0;fillColor=#CCCCCC;strokeColor=#6881B3;gradientColor=none;gradientDirection=north;strokeWidth=2;shape=mxgraph.networks.comm_link_edge;html=1;rounded=0;exitX=1;exitY=0.5;exitDx=0;exitDy=0;entryX=0;entryY=0;entryDx=0;entryDy=0;" edge="1" parent="1" source="vBrNJ5U2Axzma90DS1rP-19" target="vBrNJ5U2Axzma90DS1rP-18">
          <mxGeometry width="100" height="100" relative="1" as="geometry">
            <mxPoint x="270" y="330" as="sourcePoint" />
            <mxPoint x="370" y="230" as="targetPoint" />
          </mxGeometry>
        </mxCell>
        <mxCell id="vBrNJ5U2Axzma90DS1rP-72" value="" style="shape=ellipse;html=1;dashed=0;whiteSpace=wrap;perimeter=ellipsePerimeter;" vertex="1" parent="1">
          <mxGeometry x="100" y="520" width="10" height="10" as="geometry" />
        </mxCell>
        <mxCell id="vBrNJ5U2Axzma90DS1rP-74" value="" style="shape=ellipse;html=1;dashed=0;whiteSpace=wrap;perimeter=ellipsePerimeter;" vertex="1" parent="1">
          <mxGeometry x="100" y="565" width="10" height="10" as="geometry" />
        </mxCell>
        <mxCell id="vBrNJ5U2Axzma90DS1rP-75" value="" style="shape=ellipse;html=1;dashed=0;whiteSpace=wrap;perimeter=ellipsePerimeter;" vertex="1" parent="1">
          <mxGeometry x="100" y="610" width="10" height="10" as="geometry" />
        </mxCell>
        <mxCell id="vBrNJ5U2Axzma90DS1rP-78" value="Dispositiv&lt;span style=&quot;background-color: initial;&quot;&gt;o LoRa 1&lt;/span&gt;" style="text;html=1;align=center;verticalAlign=middle;resizable=0;points=[];autosize=1;strokeColor=none;fillColor=none;" vertex="1" parent="1">
          <mxGeometry x="45" y="300" width="120" height="30" as="geometry" />
        </mxCell>
        <mxCell id="vBrNJ5U2Axzma90DS1rP-79" value="Dispositiv&lt;span style=&quot;background-color: initial;&quot;&gt;o LoRa 2&lt;/span&gt;" style="text;html=1;align=center;verticalAlign=middle;resizable=0;points=[];autosize=1;strokeColor=none;fillColor=none;" vertex="1" parent="1">
          <mxGeometry x="45" y="470" width="120" height="30" as="geometry" />
        </mxCell>
        <mxCell id="vBrNJ5U2Axzma90DS1rP-81" value="Dispositiv&lt;span style=&quot;background-color: initial;&quot;&gt;o&amp;nbsp;&lt;/span&gt;LoRa&amp;nbsp;&lt;span style=&quot;background-color: initial;&quot;&gt;n&lt;/span&gt;" style="text;html=1;align=center;verticalAlign=middle;resizable=0;points=[];autosize=1;strokeColor=none;fillColor=none;" vertex="1" parent="1">
          <mxGeometry x="45" y="810" width="120" height="30" as="geometry" />
        </mxCell>
        <mxCell id="vBrNJ5U2Axzma90DS1rP-82" value="" style="html=1;outlineConnect=0;fillColor=#CCCCCC;strokeColor=#6881B3;gradientColor=none;gradientDirection=north;strokeWidth=2;shape=mxgraph.networks.comm_link_edge;html=1;rounded=0;entryX=0;entryY=0.5;entryDx=0;entryDy=0;exitX=1;exitY=0.5;exitDx=0;exitDy=0;" edge="1" parent="1" source="vBrNJ5U2Axzma90DS1rP-43" target="vBrNJ5U2Axzma90DS1rP-18">
          <mxGeometry width="100" height="100" relative="1" as="geometry">
            <mxPoint x="170" y="420" as="sourcePoint" />
            <mxPoint x="380" y="620" as="targetPoint" />
          </mxGeometry>
        </mxCell>
        <mxCell id="vBrNJ5U2Axzma90DS1rP-83" value="" style="html=1;outlineConnect=0;fillColor=#CCCCCC;strokeColor=#6881B3;gradientColor=none;gradientDirection=north;strokeWidth=2;shape=mxgraph.networks.comm_link_edge;html=1;rounded=0;exitX=1;exitY=0.5;exitDx=0;exitDy=0;entryX=0;entryY=1;entryDx=0;entryDy=0;" edge="1" parent="1" source="vBrNJ5U2Axzma90DS1rP-51" target="vBrNJ5U2Axzma90DS1rP-18">
          <mxGeometry width="100" height="100" relative="1" as="geometry">
            <mxPoint x="150" y="600" as="sourcePoint" />
            <mxPoint x="374" y="798" as="targetPoint" />
          </mxGeometry>
        </mxCell>
        <mxCell id="vBrNJ5U2Axzma90DS1rP-84" value="Gateway LoRa" style="text;html=1;align=center;verticalAlign=middle;resizable=0;points=[];autosize=1;strokeColor=none;fillColor=none;" vertex="1" parent="1">
          <mxGeometry x="385" y="565" width="100" height="30" as="geometry" />
        </mxCell>
        <mxCell id="vBrNJ5U2Axzma90DS1rP-86" value="DB Server" style="text;html=1;align=center;verticalAlign=middle;resizable=0;points=[];autosize=1;strokeColor=none;fillColor=none;" vertex="1" parent="1">
          <mxGeometry x="511" y="349" width="80" height="30" as="geometry" />
        </mxCell>
        <mxCell id="vBrNJ5U2Axzma90DS1rP-87" value="Portal / Web Adaptor" style="text;html=1;align=center;verticalAlign=middle;resizable=0;points=[];autosize=1;strokeColor=none;fillColor=none;" vertex="1" parent="1">
          <mxGeometry x="640" y="560" width="130" height="30" as="geometry" />
        </mxCell>
        <mxCell id="vBrNJ5U2Axzma90DS1rP-88" value="Web Server" style="text;html=1;align=center;verticalAlign=middle;resizable=0;points=[];autosize=1;strokeColor=none;fillColor=none;" vertex="1" parent="1">
          <mxGeometry x="576" y="730" width="90" height="30" as="geometry" />
        </mxCell>
        <mxCell id="vBrNJ5U2Axzma90DS1rP-89" value="" style="image;aspect=fixed;perimeter=ellipsePerimeter;html=1;align=center;shadow=0;dashed=0;spacingTop=3;image=img/lib/active_directory/internet_cloud.svg;" vertex="1" parent="1">
          <mxGeometry x="740" y="479.62" width="96.43" height="60.75" as="geometry" />
        </mxCell>
        <mxCell id="vBrNJ5U2Axzma90DS1rP-91" value="&lt;font color=&quot;#ffffff&quot;&gt;Internet&lt;/font&gt;" style="text;html=1;align=center;verticalAlign=middle;resizable=0;points=[];autosize=1;strokeColor=none;fillColor=none;" vertex="1" parent="1">
          <mxGeometry x="758.21" y="495" width="60" height="30" as="geometry" />
        </mxCell>
      </root>
    </mxGraphModel>
  </diagram>
</mxfile>
